<svg width="40" height="40" viewBox="0 0 40 40" fill="none" xmlns="http://www.w3.org/2000/svg">
<path d="M9.68 28.9999C11.36 27.8266 13.0267 26.9266 14.68 26.2999C16.3333 25.6733 18.1067 25.3599 20 25.3599C21.8933 25.3599 23.6733 25.6733 25.34 26.2999C27.0067 26.9266 28.68 27.8266 30.36 28.9999C31.5333 27.5599 32.3667 26.1066 32.86 24.6399C33.3533 23.1733 33.6 21.6266 33.6 19.9999C33.6 16.1333 32.3 12.8999 29.7 10.2999C27.1 7.69994 23.8667 6.39994 20 6.39994C16.1333 6.39994 12.9 7.69994 10.3 10.2999C7.7 12.8999 6.4 16.1333 6.4 19.9999C6.4 21.6266 6.65333 23.1733 7.16 24.6399C7.66667 26.1066 8.50667 27.5599 9.68 28.9999ZM20 21.1999C18.4533 21.1999 17.1533 20.6733 16.1 19.6199C15.0467 18.5666 14.52 17.2666 14.52 15.7199C14.52 14.1733 15.0467 12.8733 16.1 11.8199C17.1533 10.7666 18.4533 10.2399 20 10.2399C21.5467 10.2399 22.8467 10.7666 23.9 11.8199C24.9533 12.8733 25.48 14.1733 25.48 15.7199C25.48 17.2666 24.9533 18.5666 23.9 19.6199C22.8467 20.6733 21.5467 21.1999 20 21.1999ZM20 35.9999C17.8133 35.9999 15.7467 35.5799 13.8 34.7399C11.8533 33.8999 10.1533 32.7533 8.7 31.2999C7.24667 29.8466 6.1 28.1466 5.26 26.1999C4.42 24.2533 4 22.1866 4 19.9999C4 17.7866 4.42 15.7133 5.26 13.7799C6.1 11.8466 7.24667 10.1533 8.7 8.69994C10.1533 7.24661 11.8533 6.09994 13.8 5.25994C15.7467 4.41994 17.8133 3.99994 20 3.99994C22.2133 3.99994 24.2867 4.41994 26.22 5.25994C28.1533 6.09994 29.8467 7.24661 31.3 8.69994C32.7533 10.1533 33.9 11.8466 34.74 13.7799C35.58 15.7133 36 17.7866 36 19.9999C36 22.1866 35.58 24.2533 34.74 26.1999C33.9 28.1466 32.7533 29.8466 31.3 31.2999C29.8467 32.7533 28.1533 33.8999 26.22 34.7399C24.2867 35.5799 22.2133 35.9999 20 35.9999ZM20 33.5999C21.4667 33.5999 22.9 33.3866 24.3 32.9599C25.7 32.5333 27.08 31.7866 28.44 30.7199C27.08 29.7599 25.6933 29.0266 24.28 28.5199C22.8667 28.0133 21.44 27.7599 20 27.7599C18.56 27.7599 17.1333 28.0133 15.72 28.5199C14.3067 29.0266 12.92 29.7599 11.56 30.7199C12.92 31.7866 14.3 32.5333 15.7 32.9599C17.1 33.3866 18.5333 33.5999 20 33.5999ZM20 18.7999C20.9067 18.7999 21.6467 18.5133 22.22 17.9399C22.7933 17.3666 23.08 16.6266 23.08 15.7199C23.08 14.8133 22.7933 14.0733 22.22 13.4999C21.6467 12.9266 20.9067 12.6399 20 12.6399C19.0933 12.6399 18.3533 12.9266 17.78 13.4999C17.2067 14.0733 16.92 14.8133 16.92 15.7199C16.92 16.6266 17.2067 17.3666 17.78 17.9399C18.3533 18.5133 19.0933 18.7999 20 18.7999Z" fill="#0D47A1"/>
</svg>
